<svg height="512pt" viewBox="-97 0 512 512" width="512pt" xmlns="http://www.w3.org/2000/svg"><path d="m79.207031 234.8125v266.351562l30.042969-11.265624v-255.085938zm0 0" fill="#f2d1a5"/><path d="m239.421875 234.8125h-30.039063v255.085938l30.039063 11.265624zm0 0" fill="#f2d1a5"/><path d="m109.25 234.8125v255.085938l50.066406-18.773438 50.066406 18.773438v-255.085938zm0 0" fill="#e08ea2"/><path d="m297.828125 178.683594-.070313.050781c-11.429687 7.875-16.160156 22.433594-11.542968 35.519531l.023437.074219c7.164063 20.300781-8.234375 41.484375-29.757812 40.9375l-.0625-.003906c-13.890625-.351563-26.289063 8.660156-30.242188 21.980469-6.125 20.660156-31.058593 28.757812-48.15625 15.648437l-.007812-.003906c-11.03125-8.460938-26.363281-8.460938-37.394531 0l-.007813.003906c-17.097656 13.109375-42.027344 5.011719-48.15625-15.648437-3.949219-13.320313-16.351563-22.332032-30.242187-21.980469l-.0625.003906c-21.523438.546875-36.921876-20.636719-29.757813-40.9375l.023437-.074219c4.617188-13.085937-.113281-27.644531-11.542968-35.519531l-.070313-.050781c-17.722656-12.210938-17.722656-38.390625 0-50.605469l.070313-.046875c11.429687-7.878906 16.160156-22.433594 11.542968-35.523438l-.023437-.074218c-7.164063-20.300782 8.234375-41.484375 29.757813-40.9375l.0625.003906c13.890624.351562 26.289062-8.660156 30.242187-21.980469 6.125-20.65625 31.058594-28.757812 48.15625-15.648437l.007813.007812c11.03125 8.457032 26.363281 8.457032 37.394531 0l.007812-.007812c17.097657-13.109375 42.027344-5.011719 48.15625 15.648437 3.949219 13.320313 16.351563 22.332031 30.242188 21.980469l.0625-.003906c21.523437-.546875 36.921875 20.636718 29.757812 40.9375l-.023437.074218c-4.617188 13.085938.113281 27.644532 11.542968 35.519532l.070313.050781c17.722656 12.214844 17.722656 38.390625 0 50.605469zm0 0" fill="#c4e5f9"/><path d="m79.207031 501.164062 30.042969-11.265624v-30.039063l-30.042969 11.265625zm0 0" fill="#e3a76f"/><path d="m209.382812 489.898438 30.039063 11.265624v-30.039062l-30.039063-11.265625zm0 0" fill="#e3a76f"/><path d="m109.25 459.859375v30.039063l50.066406-18.773438 50.066406 18.773438v-30.039063l-50.066406-18.773437zm0 0" fill="#d15573"/><path d="m286.214844 214.253906c-1.992188-5.644531-2.234375-11.558594-.964844-17.09375-4.855469 10.664063-15.671875 18.382813-28.769531 18.050782h-.0625c-13.890625-.355469-26.292969 8.65625-30.242188 21.980468-6.125 20.65625-31.058593 28.757813-48.15625 15.644532l-.007812-.003907c-11.03125-8.457031-26.367188-8.457031-37.394531 0l-.007813.003907c-17.097656 13.113281-42.03125 5.011718-48.15625-15.644532-3.953125-13.324218-16.351563-22.335937-30.242187-21.980468h-.0625c-13.097657.335937-23.914063-7.382813-28.773438-18.050782 1.273438 5.539063 1.03125 11.453125-.960938 17.09375l-.023437.074219c-7.164063 20.300781 8.234375 41.484375 29.757813 40.9375l.0625-.003906c13.890624-.351563 26.289062 8.660156 30.242187 21.980469 6.125 20.660156 31.058594 28.757812 48.15625 15.648437l.007813-.003906c11.03125-8.460938 26.363281-8.460938 37.394531 0l.007812.003906c17.097657 13.109375 42.027344 5.011719 48.15625-15.648437 3.949219-13.320313 16.351563-22.332032 30.242188-21.980469l.0625.003906c21.523437.546875 36.921875-20.636719 29.757812-40.941406zm0 0" fill="#83c8f1"/><path d="m159.316406 253.511719c-55.214844 0-100.132812-44.917969-100.132812-100.132813 0-55.210937 44.917968-100.132812 100.132812-100.132812 55.210938 0 100.132813 44.921875 100.132813 100.132812 0 55.214844-44.921875 100.132813-100.132813 100.132813zm0 0" fill="#faef93"/><path d="m166.5 114.566406 10.15625 20.582032 22.714844 3.300781c6.570312.953125 9.191406 9.027343 4.4375 13.664062l-16.433594 16.019531 3.878906 22.621094c1.121094 6.542969-5.746094 11.535156-11.621094 8.445313l-20.316406-10.679688-20.316406 10.679688c-5.878906 3.089843-12.746094-1.902344-11.625-8.445313l3.878906-22.621094-16.433594-16.019531c-4.753906-4.636719-2.132812-12.710937 4.441407-13.664062l22.710937-3.300781 10.160156-20.582032c2.9375-5.957031 11.429688-5.957031 14.367188 0zm0 0" fill="#c4e5f9"/><path d="m159.316406 223.472656c-50.109375 0-91.738281-37-99.007812-85.113281-.738282 4.902344-1.125 9.917969-1.125 15.019531 0 55.214844 44.917968 100.132813 100.132812 100.132813 55.210938 0 100.132813-44.917969 100.132813-100.132813 0-5.101562-.386719-10.117187-1.128907-15.019531-7.269531 48.113281-48.894531 85.113281-99.003906 85.113281zm0 0" fill="#f6e23d"/><path d="m15.019531 153.378906c0-7.75 3.660157-14.71875 10.117188-19.167968 10.355469-7.136719 16.542969-18.910157 16.542969-31.488282 0-4.335937-.734376-8.613281-2.207032-12.785156-.894531-2.539062-1.347656-5.152344-1.347656-7.773438 0-12.773437 10.410156-23.167968 23.210938-23.167968.207031 0 .414062.003906.683593.007812.328125.007813.65625.015625.984375.015625 16.800782 0 31.871094-11.253906 36.648438-27.367187 2.953125-9.949219 11.929687-16.632813 22.34375-16.632813 5.085937 0 9.941406 1.664063 14.046875 4.8125l.113281.085938c6.617188 5.039062 14.835938 7.8125 23.160156 7.8125 8.363282 0 16.628906-2.804688 23.273438-7.898438 4.105468-3.148437 8.960937-4.8125 14.042968-4.8125 10.414063 0 19.394532 6.683594 22.34375 16.632813 4.777344 16.113281 19.851563 27.363281 36.652344 27.363281.328125 0 .65625-.003906.90625-.007813l.132813-.003906c6.335937-.160156 12.300781 2.179688 16.777343 6.554688l10.5-10.742188c-7.152343-6.988281-16.617187-10.839844-26.648437-10.839844-.332031 0-.667969.003907-.933594.011719l-.140625.003907c-10.453125.242187-19.886718-6.640626-22.84375-16.609376-4.859375-16.378906-19.625-27.382812-36.746094-27.382812-8.417968 0-16.433593 2.734375-23.1875 7.917969-4.089843 3.132812-8.976562 4.792969-14.128906 4.792969s-10.039062-1.660157-14.128906-4.792969l-.113281-.085938c-6.726563-5.125-14.707031-7.832031-23.078125-7.832031-17.121094 0-31.882813 11.003906-36.742188 27.382812-2.898437 9.785157-12.050781 16.617188-22.25 16.617188-.199218 0-.394531-.003906-.664062-.011719-.335938-.007812-.671875-.011719-1.003906-.011719-21.082032 0-38.230469 17.132813-38.230469 38.191407 0 4.320312.742187 8.617187 2.230469 12.835937.878906 2.492188 1.324218 5.089844 1.324218 7.71875 0 7.640625-3.753906 14.789063-10.117187 19.171875-10.359375 7.136719-16.542969 18.90625-16.542969 31.484375 0 6.972656 1.878906 13.785156 5.429688 19.699219l12.878906-7.730469c-2.152344-3.582031-3.289063-7.71875-3.289063-11.96875zm0 0"/><path d="m85.253906 279.378906c4.855469 16.378906 19.621094 27.382813 36.742188 27.382813 8.417968 0 16.433594-2.734375 23.191406-7.914063 4.089844-3.136718 8.976562-4.796875 14.128906-4.796875s10.035156 1.660157 14.125 4.796875l.113282.085938c6.730468 5.121094 14.707031 7.828125 23.078124 7.828125 5.15625 0 10.191407-1.019531 14.964844-3.03125l-5.832031-13.839844c-2.914063 1.230469-5.988281 1.851563-9.132813 1.851563-5.082031 0-9.941406-1.664063-14.042968-4.8125l-.113282-.085938c-6.621093-5.039062-14.839843-7.8125-23.160156-7.8125-8.367187 0-16.628906 2.804688-23.277344 7.898438-4.101562 3.148437-8.960937 4.8125-14.042968 4.8125-10.414063 0-19.394532-6.683594-22.34375-16.632813-4.777344-16.113281-19.851563-27.363281-36.652344-27.363281-.328125 0-.65625.003906-1.039062.011718-13.074219.347657-23.839844-10.175781-23.839844-23.160156 0-2.617187.453125-5.234375 1.375-7.839844 1.449218-4.101562 2.179687-8.378906 2.179687-12.714843 0-11.703125-5.503906-22.976563-14.726562-30.160157l-9.230469 11.847657c5.597656 4.359375 8.9375 11.207031 8.9375 18.3125 0 2.628906-.445312 5.226562-1.347656 7.789062-1.464844 4.144531-2.207032 8.441407-2.207032 12.765625 0 21.058594 17.152344 38.1875 38.230469 38.1875.335938 0 .667969-.003906 1.074219-.011718 10.441406-.253907 19.890625 6.632812 22.847656 16.605468zm0 0"/><path d="m302.019531 121.84375c-6.292969-4.332031-10.046875-11.484375-10.046875-19.121094 0-2.628906.445313-5.226562 1.347656-7.789062 1.464844-4.144532 2.207032-8.441406 2.207032-12.765625 0-3.953125-.621094-7.875-1.84375-11.65625l-14.289063 4.625c.738281 2.28125 1.113281 4.648437 1.109375 7.03125 0 2.617187-.453125 5.230469-1.375 7.839843-1.445312 4.101563-2.179687 8.378907-2.179687 12.714844 0 12.578125 6.1875 24.351563 16.617187 31.539063 6.382813 4.398437 10.042969 11.367187 10.042969 19.121093 0 7.75-3.660156 14.71875-10.117187 19.164063-10.355469 7.140625-16.542969 18.914063-16.542969 31.496094 0 4.332031.734375 8.609375 2.207031 12.78125.894531 2.539062 1.347656 5.15625 1.347656 7.773437 0 12.773438-10.410156 23.167969-23.210937 23.167969-.207031 0-.414063 0-.582031-.003906l-.101563-.003907c-17.1875-.484374-32.765625 10.925782-37.632813 27.351563-.890624 2.992187-2.308593 5.703125-4.222656 8.0625l11.664063 9.464844c3.164062-3.898438 5.503906-8.359375 6.957031-13.257813 2.902344-9.78125 12.050781-16.617187 22.253906-16.617187.195313 0 .394532.003906.554688.007812l.105468.003907c.335938.007812.671876.011718 1.003907.011718 21.082031 0 38.230469-17.128906 38.230469-38.1875 0-4.324218-.738282-8.617187-2.230469-12.839844-.875-2.492187-1.324219-5.085937-1.324219-7.714843 0-7.640625 3.757812-14.792969 10.121094-19.175781 10.355468-7.136719 16.539062-18.90625 16.539062-31.484376 0-12.578124-6.179687-24.351562-16.609375-31.539062zm0 0"/><path d="m72.296875 90.078125c-13.492187 18.503906-20.625 40.390625-20.625 63.304687 0 59.351563 48.289063 107.640626 107.644531 107.640626 21.191406 0 41.707032-6.179688 59.339844-17.871094l-8.300781-12.519532c-15.160157 10.054688-32.8125 15.371094-51.039063 15.371094-51.074218 0-92.625-41.550781-92.625-92.621094 0-19.710937 6.136719-38.539062 17.742188-54.453124zm0 0"/><path d="m221.324219 222.125 10.066406 11.144531c22.601563-20.410156 35.566406-49.527343 35.566406-79.886719 0-59.355468-48.289062-107.644531-107.640625-107.644531-28.976562 0-56.167968 11.386719-76.578125 32.058594l10.6875 10.550781c17.566407-17.792968 40.964844-27.589844 65.890625-27.589844 51.070313 0 92.621094 41.550782 92.621094 92.625 0 26.117188-11.160156 51.171876-30.613281 68.742188zm0 0"/><path d="m212.980469 141.582031c-1.839844-5.660156-6.640625-9.710937-12.53125-10.566406l-18.804688-2.734375-8.410156-17.039062c-2.632813-5.335938-7.96875-8.652344-13.917969-8.652344-5.953125 0-11.285156 3.316406-13.917968 8.652344l-8.410157 17.039062-18.808593 2.734375c-5.886719.855469-10.6875 4.902344-12.527344 10.566406-1.839844 5.65625-.332032 11.753907 3.929687 15.90625l13.605469 13.265625-3.210938 18.730469c-1.007812 5.867187 1.359376 11.683594 6.175782 15.179687 2.71875 1.980469 5.902344 2.980469 9.109375 2.980469 2.464843 0 4.945312-.59375 7.234375-1.796875l16.820312-8.84375 16.820313 8.84375c5.269531 2.769532 11.53125 2.316406 16.347656-1.183594 4.816406-3.496093 7.179687-9.3125 6.175781-15.179687l-3.214844-18.730469 13.609376-13.265625c4.257812-4.152343 5.765624-10.25 3.925781-15.90625zm-14.414063 5.152344-19.261718 18.777344 4.546874 26.511719c.023438.136718.054688.308593-.199218.492187-.25.179687-.394532.105469-.527344.035156l-23.808594-12.515625-23.8125 12.515625c-.128906.070313-.273437.144531-.527344-.035156-.25-.183594-.222656-.355469-.199218-.492187l4.546875-26.511719-19.261719-18.78125c-.105469-.101563-.222656-.214844-.125-.511719.09375-.296875.265625-.320312.402344-.339844l26.621094-3.867187 11.90625-24.125c.0625-.128907.136718-.277344.449218-.277344.308594 0 .382813.148437.445313.277344l11.90625 24.125 26.621093 3.867187c.136719.019532.308594.042969.40625.339844.09375.296875-.023437.414062-.128906.515625zm0 0"/><path d="m231.910156 490.328125-72.59375-27.226563-72.597656 27.226563v-178.457031h-15.019531v200.128906l87.617187-32.855469 87.613282 32.855469v-200.136719h-15.019532zm0 0"/><path d="m101.738281 450.125h15.019531v15.019531h-15.019531zm0 0"/><path d="m101.738281 327.964844h15.019531v107.140625h-15.019531zm0 0"/><path d="m201.871094 327.964844h15.019531v107.140625h-15.019531zm0 0"/><path d="m201.871094 450.125h15.019531v15.019531h-15.019531zm0 0"/><g fill="#fff"><path d="m166.824219 426.0625h-15.019531v-15.019531h15.019531zm0-30.039062h-15.019531v-15.019532h15.019531zm0-30.039063h-15.019531v-15.019531h15.019531zm0-30.039063h-15.019531v-15.019531h15.019531zm0 0"/><path d="m197.699219 100.464844h15.019531v15.019531h-15.019531zm0 0"/><path d="m106.578125 100.464844h15.019531v15.019531h-15.019531zm0 0"/><path d="m217.726562 164.550781h15.019532v15.019531h-15.019532zm0 0"/><path d="m151.804688 215.617188h15.019531v15.019531h-15.019531zm0 0"/><path d="m86.550781 164.550781h15.023438v15.019531h-15.023438zm0 0"/></g></svg>