<svg id="Layer_3" enable-background="new 0 0 64 64" height="512" viewBox="0 0 64 64" width="512" xmlns="http://www.w3.org/2000/svg"><path d="m15 13-3-11h6z" fill="#f5b953"/><path d="m11 16-9-7 6-4z" fill="#f5b953"/><path d="m19 16 9-7-6-4z" fill="#f5b953"/><path d="m58 22h4v28h-4z" fill="#2d4d83"/><path d="m58 48.149c-3.253.422-6.346 1.727-8.93 3.795l-.139.111c-3.192 2.554-7.158 3.945-11.245 3.945h-21.686c-2.209 0-4-1.791-4-4 0-2.209 1.791-4 4-4h-10c-2.209 0-4-1.791-4-4 0-2.209 1.791-4 4-4-2.209 0-4-1.791-4-4 0-2.209 1.791-4 4-4-2.209 0-4-1.791-4-4 0-2.209 1.791-4 4-4h16v-4c0-2.209 1.791-4 4-4h12.343c3.622 0 7.096 1.439 9.657 4 2.561 2.561 6.035 4 9.657 4h.343" fill="#db9b7c"/><path d="m58 28h4v28h-4z" fill="#4472b2"/><path d="m58 54.149c-3.253.422-6.346 1.727-8.93 3.795l-.139.111c-3.192 2.554-7.158 3.945-11.245 3.945h-21.686c-2.209 0-4-1.791-4-4 0-2.209 1.791-4 4-4h-10c-2.209 0-4-1.791-4-4 0-2.209 1.791-4 4-4-2.209 0-4-1.791-4-4 0-2.209 1.791-4 4-4-2.209 0-4-1.791-4-4 0-2.209 1.791-4 4-4h16v-4c0-2.209 1.791-4 4-4h12.343c3.622 0 7.096 1.439 9.657 4 2.561 2.561 6.035 4 9.657 4h.343" fill="#efbe9a"/><g fill="#db9b7c"><path d="m6 37h28v2h-28z"/><path d="m22 29h16v2h-16z"/><path d="m6 45h28v2h-28z"/><path d="m16 53h18v2h-18z"/></g></svg>