<svg height="512pt" viewBox="0 -64 512 512" width="512pt" xmlns="http://www.w3.org/2000/svg"><path d="m8.015625 7.015625h448.875v288.5625h-448.875zm0 0" fill="#9bb6cc"/><path d="m8.015625 7.015625h24.046875v288.5625h-24.046875zm0 0" fill="#627b8c"/><path d="m424.828125 231.453125c-17.707031 0-32.0625 14.355469-32.0625 32.0625h-320.625c0-17.707031-14.355469-32.0625-32.0625-32.0625v-160.3125c17.707031 0 32.0625-14.355469 32.0625-32.0625h320.625c0 17.707031 14.355469 32.0625 32.0625 32.0625zm0 0" fill="#a7d3eb"/><g fill="#fff"><path d="m192.375 143.78125h16.03125v15.027344h-16.03125zm0 0"/><path d="m224.4375 143.78125h16.03125v15.027344h-16.03125zm0 0"/><path d="m256.5 143.78125h16.03125v15.027344h-16.03125zm0 0"/></g><path d="m408.796875 287.5625v88.171875h8.015625l24.046875-24.046875 24.046875 24.046875h8.015625v-88.171875" fill="#ff866e"/><path d="m432.84375 287.5625v72.8125l-16.03125 15.359375h-8.015625v-88.171875zm0 0" fill="#ff6242"/><path d="m504.984375 231.453125c0 35.414063-28.707031 64.125-64.125 64.125-35.414063 0-64.125-28.710937-64.125-64.125 0-35.417969 28.710937-64.125 64.125-64.125 35.417969 0 64.125 28.707031 64.125 64.125zm0 0" fill="#fef089"/><path d="m472.921875 231.453125c0 17.707031-14.351563 32.0625-32.0625 32.0625-17.707031 0-32.0625-14.355469-32.0625-32.0625s14.355469-32.0625 32.0625-32.0625c17.710937 0 32.0625 14.355469 32.0625 32.0625zm0 0" fill="#eab61b"/><path d="m152.296875 135.265625h-40.078125l16.03125-16.03125-16.03125-16.03125h40.078125zm0 0" fill="#eab61b"/><path d="m320.625 135.265625h40.078125l-16.03125-16.03125 16.03125-16.03125h-40.078125zm0 0" fill="#eab61b"/><path d="m152.296875 87.171875h168.328125v32.0625h-168.328125zm0 0" fill="#fef089"/><path d="m47.09375 224.652344v-146.714844c16.03125-3.050781 28.796875-15.816406 31.847656-30.84375h307.027344c3.050781 15.027344 15.816406 27.792969 30.84375 30.84375v65.34375h15.03125v-79.15625h-7.015625c-13.535156 0-25.046875-11.511719-25.046875-25.046875v-7.015625h-335.65625v7.015625c0 13.535156-10.511719 25.046875-24.046875 25.046875h-8.015625v175.34375h8.015625c13.535156 0 24.046875 10.507812 24.046875 24.046875v8.015625h296.578125v-15.03125h-281.761719c-3.050781-16.03125-15.816406-28.796875-31.847656-31.847656zm0 0"/><path d="m463.90625 163.808594v-163.808594h-463.90625v303.59375h400.78125v80.15625h19.144531l20.933594-20.933594 20.9375 20.933594h18.140625v-92.621094c20.039062-12.847656 32.0625-34.796875 32.0625-59.675781 0-31.257813-20.039062-57.882813-48.09375-67.644531zm-448.875 124.753906v-273.53125h433.84375v145.304688c-2.003906-.332032-5.378906-.523438-8.265625-.523438-39.5 0-71.511719 32.386719-71.511719 71.890625 0 23.003906 11.03125 42.832031 27.9375 56.859375zm449.875 77.046875-24.546875-24.550781-24.546875 24.550781v-66.851563c8.015625 2.804688 15.929688 4.335938 24.546875 4.335938 8.621094 0 17.535156-1.53125 24.546875-4.335938zm-24.046875-77.546875c-31.214844 0-56.609375-25.394531-56.609375-56.609375s25.394531-56.613281 56.609375-56.613281 56.613281 25.398437 56.613281 56.613281-25.398437 56.609375-56.613281 56.609375zm0 0"/><path d="m440.859375 191.875c-21.820313 0-39.574219 17.753906-39.574219 39.578125 0 21.820313 17.753906 39.578125 39.574219 39.578125 21.824219 0 39.578125-17.757812 39.578125-39.578125 0-21.824219-17.753906-39.578125-39.578125-39.578125zm0 64.125c-13.535156 0-24.546875-11.011719-24.546875-24.546875s11.011719-24.550781 24.546875-24.550781c13.539063 0 24.550781 11.015625 24.550781 24.550781s-11.011718 24.546875-24.550781 24.546875zm0 0"/><path d="m128.25 176.34375h208.40625v15.03125h-208.40625zm0 0"/><path d="m160.3125 208.40625h144.28125v15.03125h-144.28125zm0 0"/><path d="m327.640625 96.1875v-16.03125h-183.359375v16.03125h-50.203125l23.546875 23.546875-23.546875 23.546875h65.234375v-16.03125h153.296875v16.03125h66.238281l-23.546875-23.546875 23.546875-23.546875zm-183.359375 32.0625h-13.921875l8.519531-8.515625-8.519531-8.515625h13.921875zm168.328125-16.03125h-153.296875v-17.03125h153.296875zm29.953125 16.03125h-14.921875v-17.03125h14.921875l-8.515625 8.515625zm0 0"/></svg>