<svg id="Layer_1" enable-background="new 0 0 511 511" height="512" viewBox="0 0 511 511" width="512" xmlns="http://www.w3.org/2000/svg"><g><path d="m255.5 279.5c26.177 0 50.254 8.982 69.323 24.03l98.677-296.03h-112l-92.722 278.167c11.505-3.992 23.859-6.167 36.722-6.167z" fill="#f05475"/><path d="m247.5 199.5 56 168 16-48-56-168z" fill="#ae2c6d"/><path d="m324.823 303.53 98.677-296.03h-32l-93.457 280.371c9.681 3.979 18.683 9.269 26.78 15.659z" fill="#8ad8f6"/><path d="m252.822 279.534 90.678-272.034h-32l-92.722 278.167c10.704-3.714 22.143-5.854 34.044-6.133z" fill="#8ad8f6"/><path d="m263.5 247.5 16-48-16-48-16 48z" fill="#249ce3"/><path d="m255.5 279.5c12.863 0 25.217 2.175 36.722 6.167l-92.722-278.167h-112l98.677 296.03c19.069-15.048 43.146-24.03 69.323-24.03z" fill="#f05475"/><path d="m212.957 287.871-93.457-280.371h-32l98.677 296.03c8.097-6.39 17.099-11.68 26.78-15.659z" fill="#8ad8f6"/><path d="m292.222 285.667-92.722-278.167h-32l90.678 272.034c11.901.279 23.34 2.419 34.044 6.133z" fill="#8ad8f6"/><circle cx="255.5" cy="391.5" fill="#f8e868" r="112"/><circle cx="255.5" cy="391.5" fill="#e8ab4c" r="80"/><path d="m291.481 285.406c31.095 17.98 52.019 51.592 52.019 90.094 0 57.438-46.562 104-104 104-38.502 0-72.115-20.924-90.094-52.019 14.987 44.205 56.825 76.019 106.094 76.019 61.856 0 112-50.144 112-112 0-49.269-31.814-91.107-76.019-106.094z" fill="#e8ab4c"/><g><g><path d="m215.5 384h16v15h-16z" fill="#fff"/></g><g><path d="m279.5 384h16v15h-16z" fill="#fff"/></g></g><g><path d="m247.5 384h16v15h-16z"/><path d="m355.673 361.639c2.871 9.647 4.327 19.694 4.327 29.861 0 57.622-46.878 104.5-104.5 104.5s-104.5-46.878-104.5-104.5 46.878-104.5 104.5-104.5c40.141 0 77.214 23.441 94.447 59.718l13.549-6.437c-7.165-15.082-17.368-28.429-29.929-39.266l100.339-301.015h-127.812l-50.594 151.783-50.594-151.783h-127.812l100.36 301.079c-25.372 21.93-41.454 54.332-41.454 90.421 0 65.893 53.607 119.5 119.5 119.5s119.5-53.607 119.5-119.5c0-11.617-1.665-23.103-4.95-34.14zm-34.746-70.137c-.248-.162-.488-.333-.737-.494-4.157-2.681-8.466-5.073-12.886-7.202l89.602-268.806h16.188zm-25.427-19.72-16.094-48.283 69.5-208.499h32.188zm21.406-256.782h16.188l-61.594 184.782-8.094-24.282zm-36.257 259.664c-5.575-1.195-11.248-1.992-16.982-2.38l-65.052-195.156-14.23 4.743 63.46 190.381c-10.495.667-20.628 2.69-30.22 5.903l-87.719-263.155h32.188l16.957 50.871 14.23-4.743-15.375-46.128h16.188zm-182.743-259.664h16.188l89.607 268.82c-4.72 2.28-9.263 4.867-13.614 7.724z"/><path d="m255.5 304c-48.248 0-87.5 39.252-87.5 87.5s39.252 87.5 87.5 87.5 87.5-39.252 87.5-87.5-39.252-87.5-87.5-87.5zm0 160c-39.977 0-72.5-32.523-72.5-72.5s32.523-72.5 72.5-72.5 72.5 32.523 72.5 72.5-32.523 72.5-72.5 72.5z"/></g></g></svg>