<?xml version="1.0" encoding="iso-8859-1"?>
<!-- Generator: Adobe Illustrator 19.0.0, SVG Export Plug-In . SVG Version: 6.00 Build 0)  -->
<svg xmlns="http://www.w3.org/2000/svg" xmlns:xlink="http://www.w3.org/1999/xlink" version="1.1" id="Layer_1" x="0px" y="0px" viewBox="0 0 511 511" style="enable-background:new 0 0 511 511;" xml:space="preserve" width="512" height="512">
<g>
	<g>
		<path style="fill:#92D8FF;" d="M311.27,252.5l-55.77,55.77l-55.77-55.77l-21.21-21.21L52.929,105.7    c-23.44-23.44-23.44-61.42,0-84.86L66.27,7.5L311.27,252.5z"/>
		<polygon style="fill:#4ABEF0;" points="444.729,7.5 365.85,86.37 145.149,86.37 66.27,7.5   "/>
		<polygon style="fill:#4ABEF0;" points="311.27,252.5 255.5,308.27 199.729,252.5 178.52,231.29 234.29,175.52   "/>
		<path style="fill:#92D8FF;" d="M458.07,105.7L255.5,308.27l-55.77-55.77l245-245l13.34,13.34    C481.51,44.28,481.51,82.26,458.07,105.7z"/>
		<path style="fill:#4ABEF0;" d="M316.899,246.87l-5.63,5.63l-55.77,55.77l-55.77-55.77l12.9-12.9c13.44-3.97,27.66-6.1,42.37-6.1    C277.06,233.5,298.02,238.28,316.899,246.87z"/>
		<circle style="fill:#FFDE55;" cx="255" cy="383.5" r="120"/>
		<circle style="fill:#F46262;" cx="255" cy="383.5" r="90"/>
		<polygon style="fill:#FFDE55;" points="255,345.458 267.36,370.503 295,374.519 275,394.015 279.721,421.542 255,408.545     230.278,421.542 235,394.015 215,374.519 242.639,370.503   "/>
	</g>
	<g>
		<path d="M483.147,63.271c0-18.03-7.021-34.981-19.771-47.73L447.834,0H340.128v15h86.494L362.75,78.873h-214.5L84.376,15h240.752    V0H63.163l-15.54,15.54c-12.748,12.749-19.77,29.7-19.77,47.729c0,18.03,7.021,34.981,19.77,47.73l55.157,55.157l10.607-10.607    L58.23,100.393c-9.916-9.915-15.377-23.1-15.377-37.123s5.461-27.207,15.376-37.122l8.04-8.04L244.892,196.73l-45.162,45.162    l-75.736-75.736l-10.607,10.607l90.123,90.123c-16.343,7.218-31.177,17.852-43.361,31.407l11.156,10.027    C192.625,284.604,223.129,271,255,271c62.032,0,112.5,50.468,112.5,112.5S317.032,496,255,496s-112.5-50.468-112.5-112.5    c0-23.092,6.942-45.278,20.076-64.161l-12.314-8.564C135.371,332.183,127.5,357.331,127.5,383.5    c0,70.304,57.196,127.5,127.5,127.5s127.5-57.196,127.5-127.5c0-51.717-30.952-96.338-75.303-116.319l156.181-156.182    C476.125,98.25,483.147,81.299,483.147,63.271z M163.25,93.873h184.5l-92.25,92.25L163.25,93.873z M291.754,261.408    C280.11,257.897,267.773,256,255,256c-12.284,0-24.387,1.787-35.964,5.198l-8.698-8.698L444.73,18.107l8.04,8.04    c9.916,9.915,15.377,23.1,15.377,37.123c0,14.022-5.461,27.206-15.377,37.122L291.754,261.408z"/>
		<path d="M255,286c-53.762,0-97.5,43.738-97.5,97.5S201.238,481,255,481s97.5-43.738,97.5-97.5    c0-22.065-7.578-43.687-21.339-60.881l-11.711,9.373c11.809,14.755,18.05,32.565,18.05,51.508c0,45.49-37.01,82.5-82.5,82.5    s-82.5-37.01-82.5-82.5S209.509,301,255,301c20.337,0,39.872,7.463,55.007,21.014l10.006-11.176    C302.123,294.821,279.034,286,255,286z"/>
		<path d="M272.34,363.647L255,328.512l-17.341,35.136l-38.776,5.636l28.059,27.35l-6.624,38.619L255,417.02l34.683,18.232    l-6.624-38.619l28.059-27.35L272.34,363.647z M269.76,407.832L255,400.072l-14.761,7.76l2.819-16.436l-11.941-11.641l16.503-2.397    l7.38-14.954l7.38,14.954l16.503,2.397l-11.941,11.641L269.76,407.832z"/>
	</g>
	<g>
		<path style="fill:#FFFFFF;" d="M68.835,89.786C57.94,78.889,54.82,62.68,60.887,48.491l13.791,5.898    c-3.644,8.521-1.773,18.252,4.765,24.791L68.835,89.786z"/>
		<path style="fill:#FFFFFF;" d="M185.853,206.804l-36.77-36.77l10.607-10.607l36.77,36.77L185.853,206.804z M138.477,159.428    l-10.606-10.606l10.607-10.607l10.606,10.606L138.477,159.428z M117.263,138.214l-10.606-10.606L117.264,117l10.606,10.606    L117.263,138.214z"/>
		<path style="fill:#FFFFFF;" d="M258.698,45h-15V30h15V45z M228.698,45h-15V30h15V45z M198.698,45h-60V30h60V45z"/>
		<path style="fill:#FFFFFF;" d="M378.46,126.804l-10.607-10.607l27.577-27.577l10.607,10.607L378.46,126.804z M416.644,88.62    l-10.607-10.607l31.876-31.876l10.607,10.607L416.644,88.62z"/>
		
			<rect x="295.716" y="177.298" transform="matrix(0.7071 0.7071 -0.7071 0.7071 224.1788 -158.3347)" style="fill:#FFFFFF;" width="15.001" height="28.284"/>
		<rect x="212" y="332" style="fill:#FFFFFF;" width="15" height="15"/>
		<rect x="283" y="332" style="fill:#FFFFFF;" width="15" height="15"/>
		<rect x="192" y="393" style="fill:#FFFFFF;" width="15" height="15"/>
		<rect x="303" y="393" style="fill:#FFFFFF;" width="15" height="15"/>
		<rect x="247.5" y="436" style="fill:#FFFFFF;" width="15" height="15"/>
	</g>
</g>















</svg>
