<svg id="Capa_1" enable-background="new 0 0 510 510" height="512" viewBox="0 0 510 510" width="512" xmlns="http://www.w3.org/2000/svg" xmlns:xlink="http://www.w3.org/1999/xlink"><radialGradient id="SVGID_1_" cx="255.362" cy="177.24" gradientUnits="userSpaceOnUse" r="208.422"><stop offset="0" stop-color="#fccece"/><stop offset=".5379" stop-color="#fccccd"/><stop offset=".7317" stop-color="#fcc5cb"/><stop offset=".8694" stop-color="#fbbac8"/><stop offset=".9803" stop-color="#fba9c3"/><stop offset="1" stop-color="#fba5c2"/></radialGradient><linearGradient id="lg1"><stop offset="0" stop-color="#fccece"/><stop offset="1" stop-color="#fba5c2"/></linearGradient><linearGradient id="SVGID_2_" gradientUnits="userSpaceOnUse" x1="295.218" x2="265.878" xlink:href="#lg1" y1="93.314" y2="137.325"/><linearGradient id="SVGID_3_" gradientUnits="userSpaceOnUse" x1="354.365" x2="288.365" xlink:href="#lg1" y1="115.897" y2="148.897"/><linearGradient id="SVGID_4_" gradientTransform="matrix(0 1 1 0 -506.118 506.118)" gradientUnits="userSpaceOnUse" x1="-109.544" x2="10.451" y1="672.5" y2="887.946"><stop offset="0" stop-color="#3fa9f5"/><stop offset="1" stop-color="#666ad6"/></linearGradient><linearGradient id="SVGID_5_" gradientUnits="userSpaceOnUse" x1="417.741" x2="67.741" y1="499.354" y2="297.354"><stop offset="0" stop-color="#3b8eac" stop-opacity="0"/><stop offset="1" stop-color="#343168"/></linearGradient><path d="m404.307 240.98-19.02-75.4c-11.305-44.816-31.105-87.047-58.325-124.402l-25.629-35.173c-6.095-8.365-18.716-7.913-24.197.866-11.151 17.86-10.525 40.66 1.587 57.881l13.985 19.884c-.012-.01-.023-.02-.035-.029-2.032-1.677-4.114-3.352-6.197-4.978l-34.337-26.718c-8.178-6.4-20.165-2.489-23.01 7.467-1.372 4.774-2.032 9.651-2.032 14.477 0 15.594 6.959 30.629 19.505 40.737l31.391 25.347c5.887 4.745 11.456 9.849 16.682 15.273l-30.359-11.852c-21.999-8.588-46.209-9.721-68.914-3.224l-64.986 22.479c-8.367 2.394-12.247 12.023-7.877 19.55 12.706 21.883 39.114 31.727 63.044 23.501l30.083-13.576c13.388-4.602 28.166-2.586 39.832 5.434l32.741 22.51c10.069 6.922 15.345 18.953 13.617 31.048-1.423 9.959-7.424 18.678-16.218 23.564l-46.832 26.018c-18.186 10.104-40.846 7.085-55.753-7.427-8.862-8.626-13.977-20.39-14.242-32.754l.374-2.832c4.457-33.754-22.405-63.457-56.435-62.405-9.381.29-16.645 8.313-16.006 17.677l4.616 67.592c.9 13.183 5.77 25.784 13.969 36.147l54.279 68.6c9.673 12.225 22.841 21.214 37.75 25.77 39.401 12.04 81.338 13.114 121.303 3.108l6.117-1.531c21.731-5.441 40-20.107 50.009-40.148l15.404-30.841c16.585-33.204 16.825-70.004 4.116-101.64z" fill="url(#SVGID_1_)"/><path d="m246.603 115.593 31.391 25.347c5.887 4.745 11.456 9.849 16.682 15.273l37.698 14.717-1.814-8.218c-5.151-23.335-14.882-45.416-28.63-64.963l-9.221-13.111c-.012-.01-.023-.02-.035-.029-2.032-1.677-4.114-3.352-6.197-4.978l-34.337-26.718c-8.178-6.4-20.165-2.489-23.01 7.467-1.372 4.774-2.032 9.651-2.032 14.477-.001 15.593 6.958 30.628 19.505 40.736z" fill="url(#SVGID_2_)"/><path d="m301.929 97.749c13.748 19.547 23.479 41.628 28.63 64.963l1.814 8.218 1.978.772c33.367 13.026 57.691 38.747 69.956 69.278l-19.02-75.4c-11.305-44.816-31.105-87.047-58.325-124.402l-25.629-35.173c-6.095-8.365-18.716-7.913-24.197.866-11.151 17.86-10.525 40.66 1.587 57.881z" fill="url(#SVGID_3_)"/><path d="m408.895 480.302v-51.013c0-16.402-13.296-29.698-29.698-29.698h-216.562c-16.402 0-29.698 13.296-29.698 29.698v51.013c0 16.402 13.296 29.698 29.698 29.698h216.563c16.401 0 29.697-13.296 29.697-29.698z" fill="url(#SVGID_4_)"/><path d="m379.198 399.592h-196.66l1.957.994 109.414 109.414h85.289c16.402 0 29.698-13.296 29.698-29.698v-51.012c-.001-16.402-13.297-29.698-29.698-29.698z" fill="url(#SVGID_5_)"/></svg>